<svg width="164" height="31" viewBox="0 0 164 31" fill="none" xmlns="http://www.w3.org/2000/svg">
<path d="M0.8 0.559998H20.64V6.16H13.48V30H7.68V6.16H0.8V0.559998ZM38.4219 15.32C38.4219 13.2933 38.8085 11.3733 39.5819 9.56C40.3552 7.74666 41.4219 6.14666 42.7819 4.76C44.1685 3.34667 45.7685 2.24 47.5819 1.44C49.3952 0.639999 51.3419 0.239999 53.4219 0.239999C55.4752 0.239999 57.4085 0.639999 59.2219 1.44C61.0352 2.24 62.6352 3.34667 64.0219 4.76C65.4352 6.14666 66.5285 7.74666 67.3019 9.56C68.1019 11.3733 68.5019 13.2933 68.5019 15.32C68.5019 17.4 68.1019 19.3467 67.3019 21.16C66.5285 22.9733 65.4352 24.5733 64.0219 25.96C62.6352 27.32 61.0352 28.3867 59.2219 29.16C57.4085 29.9333 55.4752 30.32 53.4219 30.32C51.3419 30.32 49.3952 29.9333 47.5819 29.16C45.7685 28.3867 44.1685 27.32 42.7819 25.96C41.4219 24.5733 40.3552 22.9733 39.5819 21.16C38.8085 19.3467 38.4219 17.4 38.4219 15.32ZM44.4219 15.32C44.4219 16.6267 44.6485 17.8533 45.1019 19C45.5819 20.12 46.2352 21.12 47.0619 22C47.9152 22.8533 48.8885 23.52 49.9819 24C51.1019 24.48 52.3152 24.72 53.6219 24.72C54.8752 24.72 56.0352 24.48 57.1019 24C58.1952 23.52 59.1419 22.8533 59.9419 22C60.7419 21.12 61.3685 20.12 61.8219 19C62.2752 17.8533 62.5019 16.6267 62.5019 15.32C62.5019 13.9867 62.2619 12.7467 61.7819 11.6C61.3285 10.4533 60.6885 9.45333 59.8619 8.6C59.0619 7.72 58.1152 7.04 57.0219 6.56C55.9285 6.08 54.7419 5.84 53.4619 5.84C52.1819 5.84 50.9952 6.08 49.9019 6.56C48.8085 7.04 47.8485 7.72 47.0219 8.6C46.1952 9.45333 45.5552 10.4533 45.1019 11.6C44.6485 12.7467 44.4219 13.9867 44.4219 15.32ZM89.2844 30V0.559998H98.0844C101.044 0.559998 103.564 0.999998 105.644 1.88C107.724 2.76 109.391 3.93333 110.644 5.4C111.924 6.86667 112.858 8.50667 113.444 10.32C114.031 12.1333 114.324 13.96 114.324 15.8C114.324 17.9867 113.924 19.96 113.124 21.72C112.351 23.4533 111.284 24.9467 109.924 26.2C108.564 27.4267 106.991 28.3733 105.204 29.04C103.418 29.68 101.524 30 99.5244 30H89.2844ZM95.0844 24.4H98.5244C99.991 24.4 101.324 24.2133 102.524 23.84C103.724 23.44 104.751 22.8667 105.604 22.12C106.484 21.3733 107.151 20.44 107.604 19.32C108.084 18.1733 108.324 16.8667 108.324 15.4C108.324 13.48 108.004 11.92 107.364 10.72C106.751 9.49333 105.978 8.54667 105.044 7.88C104.138 7.21333 103.204 6.76 102.244 6.52C101.284 6.25333 100.471 6.12 99.8044 6.12H95.0844V24.4ZM133.344 15.32C133.344 13.2933 133.73 11.3733 134.504 9.56C135.277 7.74666 136.344 6.14666 137.704 4.76C139.09 3.34667 140.69 2.24 142.504 1.44C144.317 0.639999 146.264 0.239999 148.344 0.239999C150.397 0.239999 152.33 0.639999 154.144 1.44C155.957 2.24 157.557 3.34667 158.944 4.76C160.357 6.14666 161.45 7.74666 162.224 9.56C163.024 11.3733 163.424 13.2933 163.424 15.32C163.424 17.4 163.024 19.3467 162.224 21.16C161.45 22.9733 160.357 24.5733 158.944 25.96C157.557 27.32 155.957 28.3867 154.144 29.16C152.33 29.9333 150.397 30.32 148.344 30.32C146.264 30.32 144.317 29.9333 142.504 29.16C140.69 28.3867 139.09 27.32 137.704 25.96C136.344 24.5733 135.277 22.9733 134.504 21.16C133.73 19.3467 133.344 17.4 133.344 15.32ZM139.344 15.32C139.344 16.6267 139.57 17.8533 140.024 19C140.504 20.12 141.157 21.12 141.984 22C142.837 22.8533 143.81 23.52 144.904 24C146.024 24.48 147.237 24.72 148.544 24.72C149.797 24.72 150.957 24.48 152.024 24C153.117 23.52 154.064 22.8533 154.864 22C155.664 21.12 156.29 20.12 156.744 19C157.197 17.8533 157.424 16.6267 157.424 15.32C157.424 13.9867 157.184 12.7467 156.704 11.6C156.25 10.4533 155.61 9.45333 154.784 8.6C153.984 7.72 153.037 7.04 151.944 6.56C150.85 6.08 149.664 5.84 148.384 5.84C147.104 5.84 145.917 6.08 144.824 6.56C143.73 7.04 142.77 7.72 141.944 8.6C141.117 9.45333 140.477 10.4533 140.024 11.6C139.57 12.7467 139.344 13.9867 139.344 15.32Z" fill="white"/>
</svg>
